<svg width="24" height="24" viewBox="0 0 24 24" fill="none" xmlns="http://www.w3.org/2000/svg">
<path fill-rule="evenodd" clip-rule="evenodd" d="M19.2066 6.20692C19.3888 6.01832 19.4895 5.76571 19.4873 5.50352C19.485 5.24132 19.3798 4.99051 19.1944 4.8051C19.009 4.61969 18.7582 4.51452 18.496 4.51224C18.2338 4.50997 17.9812 4.61076 17.7926 4.79292L11.9996 10.5859L6.20659 4.79292C6.01799 4.61076 5.76539 4.50997 5.50319 4.51224C5.24099 4.51452 4.99018 4.61969 4.80477 4.8051C4.61937 4.99051 4.5142 5.24132 4.51192 5.50352C4.50964 5.76571 4.61044 6.01832 4.79259 6.20692L10.5856 11.9999L4.79259 17.7929C4.69708 17.8852 4.6209 17.9955 4.56849 18.1175C4.51608 18.2395 4.4885 18.3707 4.48734 18.5035C4.48619 18.6363 4.51149 18.768 4.56177 18.8909C4.61205 19.0138 4.68631 19.1254 4.7802 19.2193C4.87409 19.3132 4.98574 19.3875 5.10864 19.4377C5.23154 19.488 5.36322 19.5133 5.49599 19.5122C5.62877 19.511 5.75999 19.4834 5.882 19.431C6.004 19.3786 6.11435 19.3024 6.20659 19.2069L11.9996 13.4139L17.7926 19.2069C17.9812 19.3891 18.2338 19.4899 18.496 19.4876C18.7582 19.4853 19.009 19.3801 19.1944 19.1947C19.3798 19.0093 19.485 18.7585 19.4873 18.4963C19.4895 18.2341 19.3888 17.9815 19.2066 17.7929L13.4136 11.9999L19.2066 6.20692Z" fill="#8493B2"/>
</svg>
