<svg width="24" height="24" viewBox="0 0 24 24" fill="none" xmlns="http://www.w3.org/2000/svg">
<path fill-rule="evenodd" clip-rule="evenodd" d="M4.17157 3.17137C3 4.34295 3 6.22856 3 9.9998V13.9998C3 17.771 3 19.6567 4.17157 20.8282C5.34315 21.9998 7.22876 21.9998 11 21.9998H13C16.7712 21.9998 18.6569 21.9998 19.8284 20.8282C21 19.6567 21 17.771 21 13.9998V9.9998C21 6.22856 21 4.34295 19.8284 3.17137C18.6569 1.9998 16.7712 1.9998 13 1.9998H11C7.22876 1.9998 5.34315 1.9998 4.17157 3.17137ZM7.25 7.9998C7.25 7.58559 7.58579 7.2498 8 7.2498H16C16.4142 7.2498 16.75 7.58559 16.75 7.9998C16.75 8.41401 16.4142 8.7498 16 8.7498H8C7.58579 8.7498 7.25 8.41401 7.25 7.9998ZM7.25 11.9998C7.25 11.5856 7.58579 11.2498 8 11.2498H16C16.4142 11.2498 16.75 11.5856 16.75 11.9998C16.75 12.414 16.4142 12.7498 16 12.7498H8C7.58579 12.7498 7.25 12.414 7.25 11.9998ZM8 15.2498C7.58579 15.2498 7.25 15.5856 7.25 15.9998C7.25 16.414 7.58579 16.7498 8 16.7498H13C13.4142 16.7498 13.75 16.414 13.75 15.9998C13.75 15.5856 13.4142 15.2498 13 15.2498H8Z" fill="#066C78"/>
</svg>
