<svg width="24" height="24" viewBox="0 0 24 24" fill="none" xmlns="http://www.w3.org/2000/svg">
<path d="M12.75 20.25V15.75H15.75L12 11.25L8.25 15.75H11.25V20.25H7.5V20.2125C7.374 20.22 7.254 20.25 7.125 20.25C5.63316 20.25 4.20242 19.6574 3.14752 18.6025C2.09263 17.5476 1.5 16.1168 1.5 14.625C1.5 11.739 3.6825 9.387 6.483 9.0645C6.72853 7.78094 7.41367 6.62305 8.42056 5.79C9.42745 4.95694 10.6932 4.50079 12 4.5C13.307 4.50073 14.5729 4.95683 15.5801 5.78987C16.5872 6.6229 17.2727 7.78082 17.5185 9.0645C20.319 9.387 22.4985 11.739 22.4985 14.625C22.4985 16.1168 21.9059 17.5476 20.851 18.6025C19.7961 19.6574 18.3653 20.25 16.8735 20.25C16.7475 20.25 16.626 20.22 16.4985 20.2125V20.25H12.75Z" fill="#066C78"/>
</svg>
