<svg width="24" height="24" viewBox="0 0 24 24" fill="none" xmlns="http://www.w3.org/2000/svg">
<path fill-rule="evenodd" clip-rule="evenodd" d="M3 14.25C3.41421 14.25 3.75 14.5858 3.75 15C3.75 16.4354 3.75159 17.4365 3.85315 18.1919C3.9518 18.9257 4.13225 19.3142 4.40901 19.591C4.68577 19.8678 5.07435 20.0482 5.80812 20.1469C6.56347 20.2484 7.56459 20.25 9 20.25H15C16.4354 20.25 17.4365 20.2484 18.1919 20.1469C18.9257 20.0482 19.3142 19.8678 19.591 19.591C19.8678 19.3142 20.0482 18.9257 20.1469 18.1919C20.2484 17.4365 20.25 16.4354 20.25 15C20.25 14.5858 20.5858 14.25 21 14.25C21.4142 14.25 21.75 14.5858 21.75 15V15.0549C21.75 16.4225 21.75 17.5248 21.6335 18.3918C21.5125 19.2919 21.2536 20.0497 20.6517 20.6516C20.0497 21.2536 19.2919 21.5125 18.3918 21.6335C17.5248 21.75 16.4225 21.75 15.0549 21.75H8.94513C7.57754 21.75 6.47522 21.75 5.60825 21.6335C4.70814 21.5125 3.95027 21.2536 3.34835 20.6517C2.74643 20.0497 2.48754 19.2919 2.36652 18.3918C2.24996 17.5248 2.24998 16.4225 2.25 15.0549C2.25 15.0366 2.25 15.0183 2.25 15C2.25 14.5858 2.58579 14.25 3 14.25Z" fill="white"/>
<path fill-rule="evenodd" clip-rule="evenodd" d="M12.0005 2.25C12.2111 2.25 12.4119 2.33852 12.554 2.49392L16.554 6.86892C16.8335 7.17462 16.8123 7.64902 16.5066 7.92852C16.2009 8.20802 15.7265 8.18678 15.447 7.88108L12.7505 4.9318V16C12.7505 16.4142 12.4147 16.75 12.0005 16.75C11.5863 16.75 11.2505 16.4142 11.2505 16V4.9318L8.55402 7.88108C8.27452 8.18678 7.80012 8.20802 7.49442 7.92852C7.18872 7.64902 7.16747 7.17462 7.44697 6.86892L11.447 2.49392C11.5891 2.33852 11.7899 2.25 12.0005 2.25Z" fill="white"/>
</svg>
