<svg width="40" height="40" viewBox="0 0 40 40" fill="none" xmlns="http://www.w3.org/2000/svg">
<path fill-rule="evenodd" clip-rule="evenodd" d="M5 23.75C5.69035 23.75 6.25 24.3097 6.25 25C6.25 27.3923 6.25265 29.0608 6.42192 30.3198C6.58633 31.5428 6.88708 32.1903 7.34835 32.6517C7.80962 33.113 8.45725 33.4137 9.6802 33.5782C10.9391 33.7473 12.6077 33.75 15 33.75H25C27.3923 33.75 29.0608 33.7473 30.3198 33.5782C31.5428 33.4137 32.1903 33.113 32.6517 32.6517C33.113 32.1903 33.4137 31.5428 33.5782 30.3198C33.7473 29.0608 33.75 27.3923 33.75 25C33.75 24.3097 34.3097 23.75 35 23.75C35.6903 23.75 36.25 24.3097 36.25 25V25.0915C36.25 27.3708 36.25 29.208 36.0558 30.653C35.8542 32.1532 35.4227 33.4162 34.4195 34.4193C33.4162 35.4227 32.1532 35.8542 30.653 36.0558C29.208 36.25 27.3708 36.25 25.0915 36.25H14.9086C12.6292 36.25 10.792 36.25 9.34708 36.0558C7.8469 35.8542 6.58378 35.4227 5.58058 34.4195C4.57738 33.4162 4.1459 32.1532 3.9442 30.653C3.74993 29.208 3.74997 27.3708 3.75 25.0915C3.75 25.061 3.75 25.0305 3.75 25C3.75 24.3097 4.30965 23.75 5 23.75Z" fill="#066C78"/>
<path fill-rule="evenodd" clip-rule="evenodd" d="M20.0007 3.75C20.3517 3.75 20.6863 3.89753 20.9232 4.15653L27.5898 11.4482C28.0557 11.9577 28.0203 12.7484 27.5108 13.2142C27.0013 13.68 26.2107 13.6446 25.7448 13.1351L21.2507 8.21967V26.6667C21.2507 27.357 20.691 27.9167 20.0007 27.9167C19.3103 27.9167 18.7507 27.357 18.7507 26.6667V8.21967L14.2565 13.1351C13.7907 13.6446 13 13.68 12.4905 13.2142C11.981 12.7484 11.9456 11.9577 12.4115 11.4482L19.0782 4.15653C19.315 3.89753 19.6497 3.75 20.0007 3.75Z" fill="#066C78"/>
</svg>
