<svg width="40" height="40" viewBox="0 0 40 40" fill="none" xmlns="http://www.w3.org/2000/svg">
<rect x="0.5" y="0.5" width="39" height="39" rx="9.5" fill="white"/>
<rect x="0.5" y="0.5" width="39" height="39" rx="9.5" stroke="#E0E3E6"/>
<path d="M20 18.125C18.9662 18.125 18.125 18.9662 18.125 20C18.125 21.0338 18.9662 21.875 20 21.875C21.0338 21.875 21.875 21.0338 21.875 20C21.875 18.9662 21.0338 18.125 20 18.125Z" fill="#0C2427"/>
<path d="M13.75 18.125C12.7162 18.125 11.875 18.9662 11.875 20C11.875 21.0338 12.7162 21.875 13.75 21.875C14.7838 21.875 15.625 21.0338 15.625 20C15.625 18.9662 14.7838 18.125 13.75 18.125Z" fill="#0C2427"/>
<path d="M26.25 18.125C25.2162 18.125 24.375 18.9662 24.375 20C24.375 21.0338 25.2162 21.875 26.25 21.875C27.2838 21.875 28.125 21.0338 28.125 20C28.125 18.9662 27.2838 18.125 26.25 18.125Z" fill="#0C2427"/>
</svg>
