<svg width="14" height="14" viewBox="0 0 14 14" fill="none" xmlns="http://www.w3.org/2000/svg">
<g clip-path="url(#clip0_197_16261)">
<path d="M7.00037 0C3.14107 0 0.000488281 3.13997 0.000488281 6.99975C0.000488281 10.8595 3.14087 14 7.00037 14C10.8605 14 14.0002 10.8597 14.0002 6.99975C14.0002 3.13997 10.8607 0 7.00037 0ZM10.0299 5.56558L6.36382 9.23165C6.25374 9.3416 6.10868 9.39711 5.96496 9.39711C5.82014 9.39711 5.67643 9.34165 5.56598 9.23165L3.97157 7.63724C3.75113 7.4166 3.75113 7.05972 3.97157 6.83932C4.19197 6.61892 4.54885 6.61892 4.76929 6.83932L5.96496 8.0354L9.23267 4.76753C9.45262 4.54738 9.80946 4.54738 10.0299 4.76753C10.2503 4.9883 10.2503 5.34518 10.0299 5.56558Z" fill="#25BA55"/>
</g>
<defs>
<clipPath id="clip0_197_16261">
<rect width="14" height="14" fill="white"/>
</clipPath>
</defs>
</svg>
