<svg width="14" height="14" viewBox="0 0 14 14" fill="none" xmlns="http://www.w3.org/2000/svg">
<path fill-rule="evenodd" clip-rule="evenodd" d="M12.8332 6.99984C12.8332 10.2215 10.2215 12.8332 6.99984 12.8332C3.77817 12.8332 1.1665 10.2215 1.1665 6.99984C1.1665 3.77817 3.77817 1.1665 6.99984 1.1665C10.2215 1.1665 12.8332 3.77817 12.8332 6.99984ZM6.99984 10.354C7.24145 10.354 7.43734 10.1581 7.43734 9.9165V6.4165C7.43734 6.17489 7.24145 5.979 6.99984 5.979C6.75822 5.979 6.56234 6.17489 6.56234 6.4165V9.9165C6.56234 10.1581 6.75822 10.354 6.99984 10.354ZM6.99984 4.08317C7.32201 4.08317 7.58317 4.34434 7.58317 4.6665C7.58317 4.98867 7.32201 5.24984 6.99984 5.24984C6.67766 5.24984 6.4165 4.98867 6.4165 4.6665C6.4165 4.34434 6.67766 4.08317 6.99984 4.08317Z" fill="#F8A05C"/>
</svg>
