<svg width="14" height="14" viewBox="0 0 14 14" fill="none" xmlns="http://www.w3.org/2000/svg">
<path fill-rule="evenodd" clip-rule="evenodd" d="M12.8332 6.99984C12.8332 10.2215 10.2215 12.8332 6.99984 12.8332C3.77817 12.8332 1.1665 10.2215 1.1665 6.99984C1.1665 3.77817 3.77817 1.1665 6.99984 1.1665C10.2215 1.1665 12.8332 3.77817 12.8332 6.99984ZM5.23212 5.23213C5.40297 5.06128 5.67998 5.06128 5.85085 5.23213L6.99984 6.3811L8.14877 5.23215C8.31963 5.06129 8.59665 5.06129 8.76751 5.23215C8.93837 5.403 8.93837 5.68001 8.76751 5.85085L7.61852 6.99984L8.76751 8.14877C8.93837 8.31963 8.93837 8.59665 8.76751 8.76751C8.59665 8.93837 8.31963 8.93837 8.14877 8.76751L6.99984 7.61858L5.85085 8.76751C5.68 8.93837 5.40299 8.93837 5.23213 8.76751C5.06128 8.59665 5.06128 8.31963 5.23213 8.14883L6.3811 6.99984L5.23212 5.85085C5.06126 5.68 5.06126 5.40299 5.23212 5.23213Z" fill="#F21313"/>
</svg>
