<svg width="40" height="40" viewBox="0 0 40 40" fill="none" xmlns="http://www.w3.org/2000/svg">
<rect width="40" height="40" rx="6" fill="#EDF6F9"/>
<g clip-path="url(#clip0_348_15754)">
<path d="M20.9163 20.9167C22.9413 20.9167 24.583 22.5583 24.583 24.5833V25.9583C24.583 26.7177 23.9674 27.3333 23.208 27.3333H12.208C11.4486 27.3333 10.833 26.7177 10.833 25.9583V24.5833C10.833 22.5583 12.4746 20.9167 14.4997 20.9167H20.9163ZM26.4163 20.9169C27.9352 20.9169 29.1663 22.1481 29.1663 23.6669V25.0419C29.1663 25.8013 28.5507 26.4168 27.7913 26.4168H26.4163V24.5833C26.4163 23.0841 25.6966 21.7531 24.5837 20.9169H26.4163ZM17.708 11.75C19.9862 11.75 21.833 13.5968 21.833 15.875C21.833 18.1532 19.9862 20 17.708 20C15.4298 20 13.583 18.1532 13.583 15.875C13.583 13.5968 15.4298 11.75 17.708 11.75ZM25.4997 14.5C27.0185 14.5 28.2497 15.7312 28.2497 17.25C28.2497 18.7688 27.0185 20 25.4997 20C23.9808 20 22.7497 18.7688 22.7497 17.25C22.7497 15.7312 23.9808 14.5 25.4997 14.5Z" fill="#066C78"/>
</g>
<defs>
<clipPath id="clip0_348_15754">
<rect width="22" height="22" fill="white" transform="translate(9 9)"/>
</clipPath>
</defs>
</svg>
