<svg width="20" height="20" viewBox="0 0 20 20" fill="none" xmlns="http://www.w3.org/2000/svg">
<path d="M17.418 3.33305H9.04297C8.85947 2.84938 8.53499 2.43195 8.11155 2.1348C7.68811 1.83764 7.18521 1.67446 6.66797 1.66638C6.15503 1.67125 5.65601 1.83379 5.2386 2.13194C4.82119 2.43009 4.5056 2.84942 4.33464 3.33305H2.58464C2.4697 3.32744 2.35478 3.34457 2.24647 3.38344C2.13816 3.4223 2.03858 3.48216 1.95344 3.55956C1.86829 3.63697 1.79925 3.73041 1.75026 3.83454C1.70128 3.93867 1.67331 4.05143 1.66797 4.16638C1.67331 4.28133 1.70128 4.3941 1.75026 4.49822C1.79925 4.60235 1.86829 4.69579 1.95344 4.7732C2.03858 4.85061 2.13816 4.91046 2.24647 4.94933C2.35478 4.9882 2.4697 5.00532 2.58464 4.99972H4.33464C4.5056 5.48334 4.82119 5.90268 5.2386 6.20083C5.65601 6.49898 6.15503 6.66151 6.66797 6.66638C7.18521 6.6583 7.68811 6.49512 8.11155 6.19797C8.53499 5.90082 8.85947 5.48338 9.04297 4.99972H17.418C17.5329 5.00532 17.6478 4.9882 17.7561 4.94933C17.8644 4.91046 17.964 4.85061 18.0492 4.7732C18.1343 4.69579 18.2034 4.60235 18.2523 4.49822C18.3013 4.3941 18.3293 4.28133 18.3346 4.16638C18.3293 4.05143 18.3013 3.93867 18.2523 3.83454C18.2034 3.73041 18.1343 3.63697 18.0492 3.55956C17.964 3.48216 17.8644 3.4223 17.7561 3.38344C17.6478 3.34457 17.5329 3.32744 17.418 3.33305Z" fill="#066C78"/>
<path d="M17.4167 9.16661H15.7083C15.5248 8.68294 15.2004 8.2655 14.7769 7.96835C14.3535 7.6712 13.8506 7.50802 13.3333 7.49994C12.8204 7.50481 12.3214 7.66734 11.904 7.96549C11.4866 8.26364 11.171 8.68298 11 9.16661H2.58333C2.36232 9.16661 2.15036 9.2544 1.99408 9.41068C1.8378 9.56696 1.75 9.77893 1.75 9.99994C1.75 10.221 1.8378 10.4329 1.99408 10.5892C2.15036 10.7455 2.36232 10.8333 2.58333 10.8333H11C11.171 11.3169 11.4866 11.7362 11.904 12.0344C12.3214 12.3325 12.8204 12.4951 13.3333 12.4999C13.8506 12.4919 14.3535 12.3287 14.7769 12.0315C15.2004 11.7344 15.5248 11.3169 15.7083 10.8333H17.4167C17.6377 10.8333 17.8496 10.7455 18.0059 10.5892C18.1622 10.4329 18.25 10.221 18.25 9.99994C18.25 9.77893 18.1622 9.56696 18.0059 9.41068C17.8496 9.2544 17.6377 9.16661 17.4167 9.16661Z" fill="#066C78"/>
<path d="M17.4167 14.9997H10.2917C10.1082 14.516 9.78369 14.0986 9.36025 13.8014C8.93681 13.5043 8.43391 13.3411 7.91667 13.333C7.40373 13.3379 6.90471 13.5004 6.4873 13.7986C6.06989 14.0967 5.7543 14.516 5.58333 14.9997H2.58333C2.36232 14.9997 2.15036 15.0875 1.99408 15.2438C1.8378 15.4 1.75 15.612 1.75 15.833C1.75 16.054 1.8378 16.266 1.99408 16.4223C2.15036 16.5785 2.36232 16.6663 2.58333 16.6663H5.58333C5.7543 17.15 6.06989 17.5693 6.4873 17.8675C6.90471 18.1656 7.40373 18.3281 7.91667 18.333C8.43391 18.3249 8.93681 18.1617 9.36025 17.8646C9.78369 17.5674 10.1082 17.15 10.2917 16.6663H17.4167C17.6377 16.6663 17.8496 16.5785 18.0059 16.4223C18.1622 16.266 18.25 16.054 18.25 15.833C18.25 15.612 18.1622 15.4 18.0059 15.2438C17.8496 15.0875 17.6377 14.9997 17.4167 14.9997Z" fill="#066C78"/>
</svg>
