<svg width="188" height="40" viewBox="0 0 188 40" fill="none" xmlns="http://www.w3.org/2000/svg">
<path d="M74.8431 20.9513L71.5945 12.3238C71.5645 12.246 71.5116 12.1792 71.4427 12.132C71.3739 12.0849 71.2923 12.0596 71.2088 12.0596C71.1254 12.0596 71.0438 12.0849 70.975 12.132C70.9061 12.1792 70.8533 12.246 70.8232 12.3238L67.5746 20.9527C67.5521 21.0139 67.5449 21.0797 67.5536 21.1443C67.5625 21.209 67.5869 21.2705 67.625 21.3235C67.663 21.3766 67.7134 21.4195 67.7719 21.4487C67.8304 21.4778 67.8951 21.4921 67.9603 21.4906H74.485C74.5822 21.4917 74.6761 21.456 74.7479 21.3908C74.8197 21.3255 74.8641 21.2355 74.8721 21.1389C74.8782 21.0755 74.8682 21.0115 74.8431 20.9527V20.9513ZM76.3567 25.7927H66.061C65.9771 25.7932 65.8951 25.8193 65.8262 25.8673C65.7574 25.9153 65.7047 25.9832 65.6753 26.0617L63.6377 31.4437C63.6084 31.5221 63.556 31.5897 63.4874 31.6377C63.4189 31.6858 63.3373 31.7119 63.2534 31.7127H58.7898C58.7216 31.7137 58.6543 31.6977 58.5939 31.6662C58.5335 31.6346 58.4819 31.5887 58.4438 31.5323C58.4056 31.4759 58.3821 31.4109 58.3755 31.3432C58.3689 31.2755 58.3791 31.2072 58.4055 31.1444L68.6736 5.99548C68.7043 5.91938 68.7582 5.85483 68.8276 5.81101C68.8971 5.76719 68.9787 5.74631 69.0607 5.75134H73.3266C73.4076 5.75184 73.4868 5.77498 73.5553 5.81814C73.6237 5.8613 73.6786 5.92273 73.7137 5.99548L83.9804 31.1444C84.0068 31.2073 84.0172 31.2759 84.0104 31.3437C84.0036 31.4116 83.98 31.4767 83.9418 31.5332C83.9035 31.5897 83.8518 31.6359 83.7912 31.6675C83.7306 31.699 83.6632 31.715 83.5947 31.7141H79.138C79.0538 31.7134 78.9719 31.6872 78.903 31.6389C78.8342 31.5906 78.7817 31.5226 78.7523 31.4437L76.7148 26.0617C76.6954 25.9823 76.6492 25.9121 76.584 25.8629C76.5187 25.8137 76.4386 25.7884 76.3567 25.7913V25.7927ZM86.1023 14.5679H89.9301C90.0382 14.5699 90.1413 14.6134 90.2181 14.6891C90.2951 14.7647 90.3399 14.867 90.3434 14.9748V31.3099C90.3399 31.4175 90.295 31.5195 90.218 31.5948C90.141 31.6699 90.0379 31.7127 89.9301 31.7141H86.1037C85.9957 31.7131 85.8923 31.6705 85.8151 31.5952C85.7378 31.5199 85.6926 31.4177 85.689 31.3099V14.9748C85.6884 14.9206 85.6988 14.8669 85.7195 14.8168C85.7403 14.7668 85.771 14.7214 85.8097 14.6833C85.8484 14.6454 85.8944 14.6156 85.9449 14.5957C85.9955 14.5759 86.0495 14.5663 86.1037 14.5679H86.1023ZM104.275 18.543C104.272 18.651 104.227 18.7537 104.15 18.8297C104.073 18.9057 103.97 18.9492 103.861 18.9513H103.751C101.851 18.9513 100.475 19.3817 99.5941 20.2755C98.7135 21.1692 98.2726 22.6286 98.2726 24.681V31.281C98.2691 31.3886 98.2244 31.4906 98.1479 31.5664C98.0713 31.6419 97.9684 31.6855 97.8606 31.6879H94.0868C93.9791 31.6855 93.8763 31.6419 93.7997 31.5664C93.7231 31.4906 93.6784 31.3886 93.6748 31.281V14.9748C93.6784 14.867 93.7232 14.7647 93.8002 14.6891C93.8771 14.6134 93.9802 14.5699 94.0882 14.5679H97.8316C97.94 14.5697 98.0434 14.6128 98.1206 14.6886C98.1978 14.7643 98.2428 14.8668 98.2463 14.9748V18.1927H98.3278C98.7102 16.9703 99.4596 15.8948 100.475 15.1113C101.536 14.3646 102.813 13.9847 104.11 14.0299H104.302V18.5444H104.275V18.543ZM114.709 18.383C114.601 18.3848 114.499 18.4275 114.422 18.5025C114.346 18.5774 114.301 18.6788 114.297 18.7858V25.5748C114.246 26.1058 114.392 26.6355 114.709 27.0644C114.985 27.3596 115.452 27.4948 116.141 27.4948H116.527C116.634 27.4972 116.737 27.5407 116.814 27.6164C116.89 27.6921 116.935 27.7942 116.938 27.9017V31.3086C116.935 31.4159 116.89 31.5177 116.813 31.5928C116.737 31.6681 116.634 31.711 116.527 31.7127H114.904C113.223 31.7127 111.93 31.2796 111.022 30.441C110.112 29.5775 109.673 28.332 109.673 26.6299V18.7858C109.669 18.6783 109.624 18.5766 109.546 18.5015C109.469 18.4265 109.366 18.384 109.258 18.383H106.864C106.756 18.3807 106.653 18.337 106.576 18.261C106.5 18.185 106.455 18.0825 106.452 17.9748V14.9748C106.455 14.8672 106.5 14.7648 106.576 14.6891C106.653 14.6134 106.756 14.5699 106.864 14.5679H109.259C109.367 14.5665 109.47 14.5237 109.547 14.4486C109.624 14.3732 109.669 14.2713 109.673 14.1637V8.10444C109.676 7.99697 109.721 7.89498 109.798 7.81971C109.875 7.74443 109.978 7.70167 110.086 7.70031H113.912C114.02 7.70167 114.123 7.74443 114.2 7.81971C114.277 7.89498 114.322 7.99697 114.326 8.10444V14.1637C114.329 14.2713 114.374 14.3732 114.451 14.4486C114.528 14.5237 114.631 14.5665 114.739 14.5679H117.491C117.6 14.5699 117.703 14.6134 117.779 14.6891C117.856 14.7647 117.901 14.867 117.905 14.9748V17.9748C117.902 18.0828 117.857 18.1854 117.78 18.2614C117.703 18.3374 117.6 18.381 117.491 18.383H114.709ZM132.191 26.6037C132.632 26.139 132.973 25.5905 133.195 24.9908C133.418 24.391 133.516 23.7527 133.485 23.1141C133.51 22.4761 133.408 21.8396 133.186 21.2408C132.964 20.6421 132.626 20.0928 132.191 19.6244C131.259 18.773 130.041 18.3007 128.778 18.3007C127.514 18.3007 126.296 18.773 125.364 19.6244C124.924 20.0891 124.582 20.6378 124.36 21.2374C124.138 21.8371 124.039 22.4755 124.07 23.1141C124.046 23.752 124.147 24.3886 124.369 24.9873C124.591 25.5861 124.929 26.1353 125.364 26.6037C125.811 27.0476 126.345 27.3943 126.932 27.6222C127.52 27.8501 128.149 27.9542 128.778 27.9279C129.409 27.9629 130.04 27.8629 130.629 27.6346C131.218 27.4062 131.751 27.0548 132.193 26.6037H132.191ZM123.38 31.1748C122.087 30.4435 121.036 29.3527 120.353 28.0355C119.628 26.4956 119.252 24.8149 119.252 23.1134C119.252 21.4119 119.628 19.7313 120.353 18.1913C121.044 16.8804 122.094 15.7923 123.38 15.0534C124.673 14.3275 126.135 13.9545 127.619 13.972C128.832 13.9423 130.033 14.2124 131.116 14.7582C132.073 15.264 132.873 16.0221 133.429 16.9499H133.511V14.9444C133.515 14.8372 133.56 14.7357 133.637 14.6606C133.713 14.5854 133.816 14.5423 133.923 14.5403H137.696C137.804 14.5421 137.907 14.5848 137.983 14.6601C138.06 14.7353 138.105 14.8371 138.109 14.9444V31.2782C138.106 31.3865 138.061 31.4892 137.984 31.5654C137.907 31.6414 137.803 31.6848 137.694 31.6865H133.926C133.818 31.6844 133.715 31.6408 133.638 31.5648C133.561 31.4888 133.516 31.3862 133.513 31.2782V29.2782H133.43C132.875 30.207 132.074 30.9657 131.116 31.4713C130.032 32.015 128.831 32.2846 127.619 32.2561C126.135 32.2738 124.673 31.9008 123.38 31.1748ZM153.831 26.6037C154.27 26.139 154.612 25.5903 154.834 24.9906C155.057 24.391 155.155 23.7527 155.125 23.1141C155.15 22.4761 155.047 21.8396 154.826 21.2408C154.604 20.6421 154.265 20.0928 153.831 19.6244C152.899 18.7726 151.68 18.3 150.416 18.3C149.153 18.3 147.934 18.7726 147.002 19.6244C146.562 20.0894 146.221 20.6381 145.998 21.2377C145.777 21.8374 145.678 22.4756 145.71 23.1141C145.685 23.752 145.787 24.3886 146.008 24.9873C146.231 25.5861 146.568 26.1353 147.003 26.6037C147.45 27.0476 147.983 27.3943 148.572 27.6222C149.16 27.8501 149.787 27.9542 150.418 27.9279C151.048 27.9628 151.68 27.8626 152.269 27.6343C152.858 27.4059 153.39 27.0546 153.832 26.6037H153.831ZM148.105 31.4699C147.147 30.964 146.347 30.2054 145.791 29.2768H145.708V31.2796C145.704 31.3872 145.66 31.4892 145.584 31.565C145.506 31.6406 145.404 31.6841 145.296 31.6865H141.468C141.361 31.6841 141.258 31.6406 141.181 31.565C141.105 31.4892 141.059 31.3872 141.057 31.2796V6.12927C141.059 6.02189 141.105 5.91996 141.181 5.8445C141.258 5.76904 141.361 5.72582 141.468 5.72375H145.296C145.404 5.72545 145.506 5.76833 145.584 5.84353C145.661 5.91873 145.705 6.02053 145.71 6.12789V16.9748H145.792C146.348 16.0473 147.149 15.289 148.105 14.7817C149.189 14.2382 150.389 13.9687 151.601 13.9968C153.084 13.979 154.547 14.3535 155.839 15.0823C157.132 15.8123 158.184 16.9017 158.867 18.2175C159.641 19.7401 160.02 21.4323 159.97 23.1389C160.004 24.8444 159.627 26.533 158.868 28.0617C158.177 29.3734 157.126 30.4617 155.841 31.1996C154.547 31.9257 153.084 32.2988 151.601 32.281C150.387 32.2909 149.188 32.012 148.104 31.4672L148.105 31.4699ZM166.413 31.6892H162.588C162.48 31.6876 162.377 31.6441 162.299 31.568C162.222 31.4919 162.177 31.3891 162.175 31.281V6.13065C162.179 6.0228 162.223 5.92047 162.301 5.84494C162.378 5.76941 162.482 5.7265 162.589 5.72513H166.414C166.522 5.72752 166.625 5.77065 166.701 5.84574C166.777 5.92084 166.822 6.02225 166.826 6.12927V31.2796C166.828 31.3589 166.806 31.4367 166.763 31.5033C166.72 31.5699 166.658 31.6222 166.584 31.6534C166.531 31.6767 166.472 31.688 166.414 31.6865V31.6892H166.413ZM175.416 18.5182C174.75 19.0488 174.292 19.7957 174.122 20.6286C174.11 20.6887 174.113 20.7508 174.128 20.8101C174.143 20.8694 174.172 20.9246 174.212 20.9713C174.251 21.0181 174.301 21.0553 174.357 21.0803C174.413 21.1052 174.475 21.1172 174.536 21.1155H181.804C181.862 21.1157 181.92 21.1035 181.974 21.0797C182.028 21.056 182.075 21.0212 182.114 20.9777C182.154 20.9342 182.183 20.8829 182.201 20.8273C182.219 20.7716 182.224 20.7128 182.217 20.6548C182.107 19.8463 181.705 19.1058 181.087 18.572C180.29 17.9403 179.295 17.6134 178.279 17.6506C177.256 17.623 176.251 17.9265 175.416 18.5168L175.415 18.5182H175.416ZM184.722 16.4092C186.208 18.0023 186.952 20.2548 186.951 23.1679V23.6575C186.946 23.765 186.902 23.8668 186.825 23.9419C186.747 24.0171 186.645 24.06 186.537 24.0617H174.399C174.338 24.0629 174.279 24.0768 174.225 24.1026C174.169 24.1284 174.121 24.1655 174.082 24.2113C174.042 24.2572 174.013 24.3109 173.997 24.3688C173.98 24.4268 173.976 24.4875 173.984 24.5472C174.142 25.5601 174.66 26.4823 175.445 27.1444C176.409 27.8966 177.61 28.2797 178.832 28.2244C180.657 28.199 182.403 27.4728 183.705 26.1968C183.748 26.1577 183.799 26.1284 183.854 26.1112C183.911 26.0939 183.969 26.0891 184.027 26.097C184.085 26.1048 184.14 26.1252 184.189 26.1568C184.238 26.1884 184.28 26.2303 184.31 26.2796L186.154 28.9017C186.207 28.9854 186.23 29.084 186.219 29.1822C186.21 29.2803 186.167 29.3724 186.099 29.4437C185.184 30.2222 184.176 30.8855 183.099 31.4189C181.757 32.016 180.3 32.3113 178.831 32.2837C177.11 32.3228 175.405 31.9316 173.875 31.1458C172.495 30.4226 171.356 29.3141 170.599 27.9555C169.797 26.4986 169.389 24.8586 169.415 23.1968C169.385 21.5323 169.774 19.8868 170.545 18.4106C171.268 17.0566 172.367 15.9395 173.71 15.1941C175.17 14.3997 176.811 13.9985 178.474 14.0299C181.171 13.9982 183.236 14.8106 184.722 16.4079V16.4092ZM90.8383 8.5141C90.8461 9.06829 90.6892 9.61238 90.3872 10.0776C90.0852 10.5427 89.6518 10.9081 89.1417 11.1276C88.6316 11.347 88.0677 11.4106 87.5214 11.3103C86.9751 11.21 86.4709 10.9504 86.0725 10.5642C85.6741 10.178 85.3993 9.68262 85.283 9.14067C85.1666 8.59871 85.214 8.0345 85.419 7.51938C85.624 7.00425 85.9775 6.56135 86.4348 6.24665C86.8921 5.93195 87.4326 5.75959 87.9878 5.75134H88.0017C88.7428 5.74792 89.4553 6.03522 89.986 6.55126C90.5166 7.06731 90.8228 7.77078 90.8383 8.50996V8.51272V8.5141Z" fill="#181D26"/>
<path d="M21.8758 0.490654L4.50805 7.66127C3.54251 8.06036 3.55224 9.42917 4.52438 9.81355L21.9645 16.7143C23.4968 17.3207 25.2034 17.3207 26.7357 16.7143L44.176 9.81355C45.1477 9.42917 45.1579 8.06036 44.1919 7.66153L26.8246 0.490654C25.2401 -0.163551 23.4602 -0.163551 21.8758 0.490654Z" fill="#EDF6F9"/>
<path d="M25.8984 20.4817V37.7212C25.8984 38.5408 26.727 39.1025 27.4909 38.8003L46.9246 31.2737C47.1413 31.1881 47.3273 31.0394 47.4582 30.8468C47.5892 30.6544 47.6592 30.4271 47.6592 30.1945V12.9554C47.6592 12.1354 46.8306 11.5739 46.0667 11.8761L26.633 19.4027C26.4163 19.4885 26.2305 19.6372 26.0994 19.8297C25.9685 20.0221 25.8984 20.2493 25.8984 20.482" fill="#066C78"/>
<path d="M21.3613 21.3715L15.5939 24.1501L15.0083 24.4326L2.83345 30.2533C2.06195 30.6247 1.07666 30.0636 1.07666 29.2082V13.0278C1.07666 12.7183 1.2357 12.4511 1.44898 12.2501C1.53647 12.1632 1.63573 12.0889 1.74388 12.0294C2.03457 11.8552 2.44954 11.8087 2.80237 11.948L21.2644 19.2471C22.2029 19.6185 22.2766 20.9306 21.3613 21.3717" fill="#EDF6F9"/>
<path d="M21.362 21.3715L15.5945 24.1501L1.44971 12.2499C1.53722 12.163 1.63649 12.0888 1.74462 12.0294C2.0353 11.8552 2.45028 11.8087 2.80311 11.948L21.2652 19.2471C22.2036 19.6185 22.2772 20.9306 21.362 21.3717" fill="#C9E4ED"/>
</svg>
