<svg width="24" height="24" viewBox="0 0 24 24" fill="none" xmlns="http://www.w3.org/2000/svg">
<path d="M2 12.97V6.99C2 4.23 4.24 2 7 2H17C19.76 2 22 4.23 22 6.99V13.97C22 16.72 19.76 18.95 17 18.95H15.5C15.19 18.95 14.89 19.1 14.7 19.35L13.2 21.34C12.54 22.22 11.46 22.22 10.8 21.34L9.3 19.35C9.14 19.13 8.78 18.95 8.5 18.95H7C4.24 18.95 2 16.72 2 13.97V12.97Z" fill="#066C78"/>
<path d="M12.0008 12.1098C11.5908 12.1098 11.2508 11.7698 11.2508 11.3598V11.1498C11.2508 9.98978 12.1008 9.41977 12.4208 9.19977C12.7908 8.94977 12.9108 8.77978 12.9108 8.51978C12.9108 8.01978 12.5008 7.60974 12.0008 7.60974C11.5008 7.60974 11.0908 8.01978 11.0908 8.51978C11.0908 8.92978 10.7508 9.26978 10.3408 9.26978C9.93082 9.26978 9.59082 8.92978 9.59082 8.51978C9.59082 7.18978 10.6708 6.10974 12.0008 6.10974C13.3308 6.10974 14.4108 7.18978 14.4108 8.51978C14.4108 9.65978 13.5708 10.2298 13.2608 10.4398C12.8708 10.6998 12.7508 10.8698 12.7508 11.1498V11.3598C12.7508 11.7798 12.4108 12.1098 12.0008 12.1098Z" fill="white"/>
<path d="M12 14.6002C11.58 14.6002 11.25 14.2602 11.25 13.8502C11.25 13.4402 11.59 13.1002 12 13.1002C12.41 13.1002 12.75 13.4402 12.75 13.8502C12.75 14.2602 12.42 14.6002 12 14.6002Z" fill="white"/>
</svg>
